<svg width="49" height="49" viewBox="0 0 49 49" fill="none" xmlns="http://www.w3.org/2000/svg">
<path d="M19.4852 22.2195C19.9609 21.875 20.1906 21.3062 20.1906 20.5242C20.207 20.1523 20.1305 19.7859 19.9664 19.4523C19.8188 19.1844 19.6 18.9602 19.332 18.8016C19.0542 18.6331 18.7456 18.5215 18.4242 18.4734C18.0742 18.4078 17.7188 18.375 17.3687 18.3805H13.5242V22.7391H17.6859C18.4023 22.7445 19.0094 22.5695 19.4852 22.2195ZM20.1305 26.157C19.5945 25.7469 18.8781 25.5445 17.9867 25.5445H13.5133V30.6852H17.8992C18.3094 30.6852 18.6867 30.6469 19.0531 30.5703C19.3998 30.5025 19.7303 30.3689 20.0266 30.1766C20.3055 29.9961 20.5297 29.75 20.6992 29.4328C20.8633 29.1156 20.9453 28.7109 20.9453 28.2242C20.9453 27.2562 20.6719 26.5727 20.1305 26.157ZM24.5 0C10.9703 0 0 10.9703 0 24.5C0 38.0297 10.9703 49 24.5 49C38.0297 49 49 38.0297 49 24.5C49 10.9703 38.0297 0 24.5 0ZM29.2305 15.6898H36.7992V17.5328H29.2305V15.6898ZM24.5 30.8875C24.146 31.5595 23.6405 32.1399 23.0234 32.5828C22.3781 33.0312 21.6617 33.3594 20.9016 33.5508C20.1063 33.7639 19.2858 33.8688 18.4625 33.8625H9.40625V15.2086H18.2109C19.1023 15.2086 19.9117 15.2906 20.65 15.4437C21.3828 15.5969 22.0063 15.8594 22.5312 16.2148C23.0508 16.5703 23.4609 17.0461 23.7508 17.6367C24.0352 18.2219 24.1828 18.9547 24.1828 19.8242C24.1828 20.7648 23.9695 21.5414 23.543 22.1703C23.1109 22.7992 22.4875 23.3078 21.6398 23.707C22.7938 24.0352 23.6414 24.6203 24.1992 25.4406C24.768 26.2719 25.0469 27.2672 25.0469 28.4375C25.0469 29.3891 24.8664 30.2039 24.5 30.8875ZM39.7469 28H29.9906C29.9906 29.0609 30.357 30.0781 30.9094 30.625C31.4672 31.1664 32.2656 31.4398 33.3102 31.4398C34.0648 31.4398 34.7047 31.2484 35.2516 30.8711C35.793 30.4937 36.1211 30.0945 36.2414 29.6789H39.5117C38.9867 31.3031 38.1883 32.4625 37.1055 33.1625C36.0336 33.8625 34.7211 34.2125 33.1953 34.2125C32.1289 34.2125 31.1719 34.0375 30.3133 33.7039C29.4875 33.3812 28.7438 32.8891 28.1313 32.2547C27.5273 31.6032 27.0605 30.837 26.7586 30.0016C26.425 29.0773 26.2609 28.1039 26.2719 27.125C26.2719 26.1133 26.4414 25.1727 26.7695 24.2977C27.3984 22.5969 28.7055 21.2352 30.3734 20.5297C31.2648 20.1578 32.2219 19.9719 33.1898 19.9828C34.3383 19.9828 35.3336 20.2016 36.1977 20.65C37.0295 21.0782 37.7517 21.6919 38.3086 22.4438C38.8609 23.193 39.2492 24.0461 39.4953 25.0086C39.7305 25.9547 39.8125 26.95 39.7469 28ZM33.075 22.7719C32.4844 22.7719 31.9867 22.8758 31.6039 23.0781C31.2211 23.2805 30.9039 23.532 30.6633 23.8219C30.4341 24.1017 30.2647 24.4256 30.1656 24.7734C30.0781 25.0633 30.018 25.3586 29.9961 25.6594H36.0391C35.9516 24.7133 35.6234 24.0133 35.1859 23.5211C34.7266 23.0344 33.9883 22.7719 33.075 22.7719Z" fill="#CFADAC"/>
</svg>
